<?xml version="1.0" encoding="UTF-8"?><svg id="Calque_2" xmlns="http://www.w3.org/2000/svg" viewBox="0 0 366.38 110.42"><defs><style>.cls-1{fill:#ffca2c;}.cls-2{fill:#0740af;}</style></defs><g id="Calque_1-2"><g><path class="cls-1" d="M66.32,43.46l26.3-24.13c2.23-2.05,2.24-5.69,0-7.2C84.77,6.83,76.19,2.8,67.09,.14c-2.59-.76-5.38,1.58-5.53,4.6l-1.77,35.65c-.19,3.79,3.74,5.63,6.53,3.07Z"/><path class="cls-1" d="M66.32,65.74c-2.8-2.56-6.72-.72-6.53,3.07l1.77,35.65c.15,3.03,2.94,5.36,5.53,4.6,9.09-2.66,17.68-6.69,25.53-11.99,2.24-1.51,2.23-5.15,0-7.2l-26.3-24.13Z"/><path class="cls-1" d="M105.79,37.55l-33.06,13.46c-3.51,1.43-3.53,5.77-.02,7.21l32.98,13.64c2.8,1.16,6.1-.37,6.53-3.04,1.49-9.36,1.51-18.84,.08-28.21-.41-2.67-3.7-4.21-6.51-3.07Z"/><path class="cls-2" d="M48.68,88.9h-12.99c-2.6,0-4.79-1.97-5.06-4.55l.74-38.16c-.31-3,2.04-5.6,5.06-5.6h8.6c3.09,0,5.6-2.51,5.6-5.6V5.6C50.64,2.51,48.12,0,45.04,0H5.61C2.38,0-.17,2.69,0,5.91L4.72,88.94c.02,11.2,9.08,20.27,20.3,20.27h6.27c10.24,0,20.1-6.52,20.45-17.16,.07-1.72-1.34-3.14-3.05-3.14ZM26.14,30.18l.04,.69h-5.47c-2.6,0-4.7-2.1-4.7-4.7V15.84c0-2.58,2.1-4.7,4.7-4.7h10.33c2.6,0,4.7,2.11,4.7,4.7v3.99h-4.26c-3.21,0-5.78,2.69-5.58,5.91l.25,4.44Z"/><path class="cls-2" d="M175.37,7.9c-1.17-2.15-2.94-3.9-5.31-5.27s-5.35-2.06-8.9-2.06h-18.77V42.25h10.82v-13.46h7.95c3.56,0,6.54-.69,8.9-2.06,2.37-1.37,4.14-3.14,5.31-5.29,1.19-2.17,1.79-4.43,1.79-6.79s-.6-4.62-1.79-6.75Zm-10.42,10.04c-.83,.99-2.13,1.5-3.85,1.5h-7.89V9.97h7.89c1.72,0,3.02,.49,3.85,1.46,.85,.98,1.26,2.06,1.26,3.27s-.42,2.24-1.26,3.23Z"/><path class="cls-2" d="M208.75,25.52c2.26-1.01,4.03-2.51,5.33-4.48,1.3-1.97,1.95-4.37,1.95-7.19s-.67-5.33-1.97-7.3c-1.32-1.97-3.16-3.47-5.53-4.48-2.37-1.01-5.11-1.52-8.22-1.52h-18.37V42.25h10.82v-15.1h5.18l7.03,15.1h11.9l-8.13-16.72Zm-4.95-8.11c-.94,.74-2.17,1.12-3.67,1.12h-7.37V9.86h7.37c1.5,0,2.73,.36,3.67,1.1,.94,.72,1.41,1.81,1.41,3.23s-.47,2.46-1.41,3.22Z"/><path class="cls-2" d="M261.76,13.55c-.9-2.53-2.26-4.82-4.08-6.85-1.82-2.02-4.08-3.65-6.79-4.88C248.19,.62,245.03,0,241.42,0s-6.75,.61-9.46,1.82c-2.69,1.23-4.95,2.85-6.75,4.88-1.81,2.02-3.16,4.32-4.08,6.85-.92,2.53-1.37,5.13-1.37,7.8s.45,5.27,1.37,7.84c.92,2.55,2.28,4.84,4.08,6.9,1.81,2.04,4.06,3.67,6.75,4.89,2.71,1.23,5.87,1.82,9.46,1.82s6.77-.6,9.46-1.82c2.71-1.23,4.97-2.85,6.79-4.89,1.82-2.06,3.18-4.35,4.08-6.9,.9-2.56,1.35-5.17,1.35-7.84s-.45-5.27-1.35-7.8Zm-11.07,13.46c-.76,1.82-1.91,3.31-3.45,4.46-1.55,1.14-3.49,1.72-5.82,1.72s-4.21-.58-5.74-1.72c-1.54-1.16-2.69-2.64-3.47-4.46-.76-1.81-1.14-3.7-1.14-5.65s.38-3.83,1.14-5.64c.78-1.81,1.93-3.27,3.47-4.43,1.54-1.14,3.47-1.72,5.74-1.72s4.26,.58,5.82,1.72c1.54,1.16,2.69,2.62,3.45,4.43,.78,1.81,1.16,3.68,1.16,5.64s-.38,3.85-1.16,5.65Z"/><polygon class="cls-2" points="295.85 18.93 279 18.93 279 9.91 298.38 9.91 298.38 .56 268.18 .56 268.18 42.25 279 42.25 279 27.89 295.85 27.89 295.85 18.93"/><path class="cls-2" d="M156.45,78.9c1.52-1.14,3.41-1.72,5.66-1.72,1.92,0,3.46,.3,4.62,.9,1.16,.6,2.03,1.31,2.59,2.11,.56,.81,1.03,1.81,1.41,3.01h10.7c-.26-1.5-.61-2.85-1.04-4.03-.43-1.18-1.07-2.44-1.92-3.77-.84-1.33-1.98-2.59-3.41-3.77-1.43-1.18-3.21-2.15-5.35-2.9-2.14-.75-4.71-1.13-7.72-1.13-3.53,0-6.63,.61-9.3,1.83-2.67,1.22-4.88,2.85-6.65,4.87-1.77,2.03-3.1,4.31-4,6.84-.9,2.54-1.35,5.14-1.35,7.8s.45,5.28,1.35,7.83c.9,2.55,2.23,4.86,4,6.9,1.76,2.05,3.98,3.68,6.65,4.9,2.67,1.22,5.76,1.83,9.3,1.83,3,0,5.58-.38,7.72-1.13,2.14-.75,3.92-1.72,5.35-2.9,1.43-1.18,2.56-2.44,3.41-3.77,.84-1.33,1.48-2.59,1.92-3.77,.43-1.18,.78-2.53,1.04-4.03h-10.7c-.38,1.2-.84,2.2-1.41,2.99-.56,.79-1.43,1.48-2.59,2.08-1.16,.6-2.7,.9-4.62,.9-2.25,0-4.14-.58-5.66-1.75-1.52-1.16-2.66-2.65-3.41-4.45-.75-1.8-1.13-3.68-1.13-5.63s.37-3.83,1.13-5.63c.75-1.8,1.89-3.28,3.41-4.42Z"/><rect class="cls-2" x="186.5" y="68.17" width="10.82" height="41.69"/><polygon class="cls-2" points="202.67 77.52 215.29 77.52 215.29 109.85 226.1 109.85 226.1 77.52 238.72 77.52 238.72 68.17 202.67 68.17 202.67 77.52"/><path class="cls-2" d="M270.9,93.13c2.24-1.01,4.03-2.51,5.31-4.48,1.3-1.97,1.95-4.37,1.95-7.19s-.65-5.33-1.97-7.3c-1.32-1.97-3.16-3.47-5.53-4.48-2.37-1.01-5.11-1.52-8.22-1.52h-18.37v41.69h10.82v-15.1h5.18l7.04,15.1h11.88l-8.11-16.72Zm-4.97-8.11c-.94,.74-2.15,1.12-3.67,1.12h-7.37v-8.67h7.37c1.52,0,2.73,.36,3.67,1.08,.94,.74,1.41,1.82,1.41,3.25s-.47,2.46-1.41,3.22Z"/><path class="cls-2" d="M323.91,81.15c-.9-2.53-2.28-4.82-4.08-6.85-1.82-2.02-4.1-3.65-6.79-4.88-2.71-1.21-5.87-1.82-9.46-1.82s-6.77,.61-9.46,1.82c-2.71,1.23-4.97,2.85-6.77,4.88-1.79,2.02-3.16,4.32-4.08,6.85-.92,2.53-1.37,5.13-1.37,7.8s.45,5.27,1.37,7.82c.92,2.56,2.29,4.86,4.08,6.92,1.81,2.04,4.06,3.67,6.77,4.89,2.69,1.21,5.85,1.82,9.46,1.82s6.75-.61,9.46-1.82c2.69-1.23,4.97-2.85,6.79-4.89,1.81-2.06,3.18-4.35,4.08-6.92,.9-2.55,1.35-5.15,1.35-7.82s-.45-5.27-1.35-7.8Zm-11.07,13.46c-.78,1.82-1.93,3.31-3.47,4.46-1.54,1.14-3.47,1.72-5.8,1.72s-4.21-.58-5.74-1.72c-1.55-1.16-2.71-2.64-3.47-4.46-.78-1.81-1.16-3.7-1.16-5.65s.38-3.83,1.16-5.64c.76-1.81,1.91-3.27,3.47-4.43,1.54-1.14,3.45-1.72,5.74-1.72s4.26,.58,5.8,1.72c1.54,1.16,2.69,2.62,3.47,4.43,.76,1.81,1.16,3.68,1.16,5.64s-.4,3.85-1.16,5.65Z"/><polygon class="cls-2" points="355.67 68.17 355.67 91.32 340.29 68.17 330.32 68.17 330.32 109.85 341.03 109.85 341.03 87.88 356.29 109.85 366.38 109.85 366.38 68.17 355.67 68.17"/></g></g></svg>